<svg width="512" height="512" viewBox="0 0 512 512" fill="none" xmlns="http://www.w3.org/2000/svg">
  <!-- Background -->
  <rect width="512" height="512" rx="72" fill="url(#gradient3)"/>
  
  <!-- Central Q logo inspired design -->
  <g transform="translate(256, 256)">
    <!-- Main Q circle -->
    <circle cx="0" cy="0" r="140" fill="none" stroke="white" stroke-width="16"/>
    <circle cx="0" cy="0" r="100" fill="none" stroke="white" stroke-width="8" opacity="0.6"/>
    
    <!-- Q tail -->
    <path d="M70 70 L120 120" stroke="white" stroke-width="16" stroke-linecap="round"/>
    
    <!-- Data visualisation elements inside Q -->
    <g transform="translate(-60, -40)">
      <!-- Small bar chart -->
      <rect x="0" y="40" width="8" height="20" rx="2" fill="#FFE500"/>
      <rect x="12" y="30" width="8" height="30" rx="2" fill="#FFE500"/>
      <rect x="24" y="20" width="8" height="40" rx="2" fill="#FFE500"/>
      <rect x="36" y="35" width="8" height="25" rx="2" fill="#FFE500"/>
      
      <!-- Line connecting to pie slice -->
      <path d="M50 30 Q70 20, 80 40" stroke="#FFE500" stroke-width="3" fill="none"/>
      
      <!-- Mini pie indicator -->
      <circle cx="85" cy="45" r="12" fill="none" stroke="#FFE500" stroke-width="2"/>
      <path d="M85 33 A12 12 0 0 1 97 45 L85 45 Z" fill="#FFE500"/>
    </g>
  </g>
  
  <!-- Corner accent elements -->
  <rect x="40" y="40" width="60" height="4" rx="2" fill="#FFE500"/>
  <rect x="40" y="50" width="40" height="4" rx="2" fill="#FFE500" opacity="0.7"/>
  <rect x="40" y="60" width="80" height="4" rx="2" fill="#FFE500" opacity="0.5"/>
  
  <!-- Bottom right accent -->
  <g transform="translate(420, 420)">
    <rect x="0" y="0" width="20" height="4" rx="2" fill="#FFE500"/>
    <rect x="0" y="8" width="30" height="4" rx="2" fill="#FFE500" opacity="0.7"/>
    <rect x="0" y="16" width="15" height="4" rx="2" fill="#FFE500" opacity="0.5"/>
  </g>
  
  <defs>
    <linearGradient id="gradient3" x1="0%" y1="0%" x2="100%" y2="100%">
      <stop offset="0%" style="stop-color:#1e3a8a;stop-opacity:1" />
      <stop offset="50%" style="stop-color:#1e293b;stop-opacity:1" />
      <stop offset="100%" style="stop-color:#0f172a;stop-opacity:1" />
    </linearGradient>
  </defs>
</svg>