<svg width="512" height="512" viewBox="0 0 512 512" fill="none" xmlns="http://www.w3.org/2000/svg">
  <!-- Background -->
  <rect width="512" height="512" rx="72" fill="url(#gradient1)"/>
  
  <!-- Chart elements -->
  <g transform="translate(80, 120)">
    <!-- Bar chart -->
    <rect x="40" y="200" width="40" height="80" rx="4" fill="white" opacity="0.9"/>
    <rect x="100" y="150" width="40" height="130" rx="4" fill="white" opacity="0.9"/>
    <rect x="160" y="100" width="40" height="180" rx="4" fill="white" opacity="0.9"/>
    <rect x="220" y="170" width="40" height="110" rx="4" fill="white" opacity="0.9"/>
    <rect x="280" y="120" width="40" height="160" rx="4" fill="white" opacity="0.9"/>
    
    <!-- Line chart overlay -->
    <path d="M60 220 L120 170 L180 110 L240 180 L300 140" stroke="#FFE500" stroke-width="6" fill="none" stroke-linecap="round" stroke-linejoin="round"/>
    
    <!-- Data points -->
    <circle cx="60" cy="220" r="8" fill="#FFE500"/>
    <circle cx="120" cy="170" r="8" fill="#FFE500"/>
    <circle cx="180" cy="110" r="8" fill="#FFE500"/>
    <circle cx="240" cy="180" r="8" fill="#FFE500"/>
    <circle cx="300" cy="140" r="8" fill="#FFE500"/>
  </g>
  
  <!-- Qlik-inspired accent -->
  <rect x="60" y="60" width="80" height="8" rx="4" fill="#FFE500"/>
  
  <defs>
    <linearGradient id="gradient1" x1="0%" y1="0%" x2="100%" y2="100%">
      <stop offset="0%" style="stop-color:#1f2937;stop-opacity:1" />
      <stop offset="100%" style="stop-color:#374151;stop-opacity:1" />
    </linearGradient>
  </defs>
</svg>