<svg width="512" height="512" viewBox="0 0 512 512" fill="none" xmlns="http://www.w3.org/2000/svg">
  <!-- Background -->
  <rect width="512" height="512" rx="72" fill="url(#gradient2)"/>
  
  <!-- Dashboard grid -->
  <g transform="translate(60, 60)">
    <!-- Top row widgets -->
    <rect x="0" y="0" width="120" height="80" rx="12" fill="white" opacity="0.15" stroke="white" stroke-width="2"/>
    <rect x="140" y="0" width="120" height="80" rx="12" fill="white" opacity="0.15" stroke="white" stroke-width="2"/>
    <rect x="280" y="0" width="112" height="80" rx="12" fill="white" opacity="0.15" stroke="white" stroke-width="2"/>
    
    <!-- Middle large chart -->
    <rect x="0" y="100" width="260" height="160" rx="12" fill="white" opacity="0.2" stroke="white" stroke-width="2"/>
    
    <!-- Pie chart representation -->
    <g transform="translate(280, 100)">
      <rect x="0" y="0" width="112" height="160" rx="12" fill="white" opacity="0.15" stroke="white" stroke-width="2"/>
      <circle cx="56" cy="80" r="45" fill="none" stroke="white" stroke-width="3"/>
      <path d="M56 35 A45 45 0 0 1 89 95 L56 80 Z" fill="#FFE500"/>
      <path d="M89 95 A45 45 0 0 1 23 95 L56 80 Z" fill="white" opacity="0.6"/>
      <path d="M23 95 A45 45 0 0 1 56 35 L56 80 Z" fill="white" opacity="0.3"/>
    </g>
    
    <!-- Bottom row -->
    <rect x="0" y="280" width="180" height="100" rx="12" fill="white" opacity="0.15" stroke="white" stroke-width="2"/>
    <rect x="200" y="280" width="192" height="100" rx="12" fill="white" opacity="0.15" stroke="white" stroke-width="2"/>
    
    <!-- Mini bar chart in main widget -->
    <g transform="translate(20, 140)">
      <rect x="0" y="60" width="12" height="40" rx="2" fill="#FFE500"/>
      <rect x="20" y="45" width="12" height="55" rx="2" fill="#FFE500"/>
      <rect x="40" y="30" width="12" height="70" rx="2" fill="#FFE500"/>
      <rect x="60" y="50" width="12" height="50" rx="2" fill="#FFE500"/>
      <rect x="80" y="20" width="12" height="80" rx="2" fill="#FFE500"/>
    </g>
  </g>
  
  <!-- Top accent bar -->
  <rect x="60" y="40" width="120" height="6" rx="3" fill="#FFE500"/>
  
  <defs>
    <linearGradient id="gradient2" x1="0%" y1="0%" x2="100%" y2="100%">
      <stop offset="0%" style="stop-color:#0f172a;stop-opacity:1" />
      <stop offset="100%" style="stop-color:#1e293b;stop-opacity:1" />
    </linearGradient>
  </defs>
</svg>